<svg width="860" height="420" xmlns="http://www.w3.org/2000/svg" xmlns:xlink="http://www.w3.org/1999/xlink" version="1.1" baseProfile="full" viewBox="0 0 860 420">
<rect width="860" height="420" x="0" y="0" fill="#ffffff"></rect>
<path d="M406 0C406 93 406 93 406 186" transform="translate(24 24)" fill="none" pointer-events="visible" stroke="#5470c6" stroke-width="1.2" class="zr0-cls-0"></path>
<path d="M406 186C406 279 406 279 406 372" transform="translate(24 24)" fill="none" pointer-events="visible" stroke="#5470c6" stroke-width="1.2" class="zr0-cls-0"></path>
<path d="M1 0A1 1 0 1 1 1 -0.1A1 1 0 0 1 1 0" transform="matrix(4,0,0,4,430,24)" fill="#5470c6" ecmeta_series_index="0" ecmeta_data_index="1" ecmeta_ssr_type="chart" class="zr0-cls-1"></path>
<path d="M1 0A1 1 0 1 1 1 -0.1A1 1 0 0 1 1 0" transform="matrix(4,0,0,4,430,210)" fill="#5470c6" ecmeta_series_index="0" ecmeta_data_index="2" ecmeta_ssr_type="chart" class="zr0-cls-1"></path>
<path d="M1 0A1 1 0 1 1 1 -0.1A1 1 0 0 1 1 0" transform="matrix(4,0,0,4,430,396)" fill="#5470c6" ecmeta_series_index="0" ecmeta_data_index="3" ecmeta_ssr_type="chart" class="zr0-cls-1"></path>
<text dominant-baseline="central" text-anchor="middle" style="font-size:11px;font-family:Microsoft YaHei;" xml:space="preserve" transform="translate(430 15)" fill="#333">minimizer bra</text>
<text dominant-baseline="central" text-anchor="middle" style="font-size:11px;font-family:Microsoft YaHei;" transform="translate(430 201)" fill="#333">Amazon正式节点</text>
<text dominant-baseline="central" text-anchor="middle" style="font-size:11px;font-family:Microsoft YaHei;" xml:space="preserve" transform="translate(430 405)" fill="#333">Clothing, Shoes &amp; Jewelry:Women:Clothing:Lingerie,...</text>
<style ><![CDATA[
.zr0-cls-0:hover {
cursor:pointer;
}
.zr0-cls-1:hover {
cursor:pointer;
fill:rgba(92,123,217,1);
}

]]>

</style>
</svg>